# batman.obj - simbolo do Batman
# 100 curvas de Bezier cubicas concatenadas (passo 3)
# Total de pontos de controle: 301
v -91.000 0.000
v -90.742 1.692
v -90.709 3.449
v -90.226 5.075
v -89.744 6.701
v -88.971 8.288
v -88.106 9.757
v -87.241 11.225
v -86.163 12.599
v -85.036 13.886
v -83.910 15.173
v -82.645 16.359
v -81.349 17.479
v -80.053 18.599
v -78.667 19.630
v -77.258 20.608
v -75.849 21.586
v -74.381 22.488
v -72.895 23.346
v -71.409 24.203
v -69.882 24.997
v -68.340 25.752
v -66.799 26.507
v -65.228 27.208
v -63.646 27.874
v -62.063 28.540
v -60.460 29.160
v -58.846 29.748
v -57.233 30.336
v -55.604 30.884
v -53.967 31.402
v -52.330 31.920
v -50.680 32.402
v -49.024 32.857
v -47.369 33.311
v -45.703 33.734
v -44.032 34.130
v -42.361 34.527
v -40.677 34.868
v -39.000 35.237
v -38.894 33.461
v -38.909 31.670
v -38.683 29.910
v -38.457 28.150
v -38.139 26.377
v -37.642 24.678
v -37.146 22.978
v -36.534 21.268
v -35.703 19.712
v -34.873 18.157
v -33.873 16.606
v -32.658 15.346
v -31.444 14.086
v -29.974 12.922
v -28.414 12.153
v -26.854 11.384
v -25.036 10.899
v -23.300 10.733
v -21.564 10.567
v -19.716 10.780
v -17.999 11.158
v -16.282 11.536
v -14.666 12.386
v -13.000 13.000
v -11.917 21.667
v -10.833 30.333
v -9.750 39.000
v -8.667 35.750
v -7.583 32.500
v -6.500 29.250
v -2.167 29.250
v 2.167 29.250
v 6.500 29.250
v 7.583 32.500
v 8.667 35.750
v 9.750 39.000
v 10.833 30.333
v 11.917 21.667
v 13.000 13.000
v 14.666 12.386
v 16.282 11.536
v 17.999 11.158
v 19.716 10.780
v 21.564 10.567
v 23.300 10.733
v 25.036 10.899
v 26.854 11.384
v 28.414 12.153
v 29.974 12.922
v 31.444 14.086
v 32.658 15.346
v 33.873 16.606
v 34.873 18.157
v 35.703 19.712
v 36.534 21.268
v 37.146 22.978
v 37.642 24.678
v 38.139 26.377
v 38.457 28.150
v 38.683 29.910
v 38.909 31.670
v 38.894 33.461
v 39.000 35.237
v 40.677 34.868
v 42.361 34.527
v 44.032 34.130
v 45.703 33.734
v 47.369 33.311
v 49.024 32.857
v 50.680 32.402
v 52.330 31.920
v 53.967 31.402
v 55.604 30.884
v 57.233 30.336
v 58.846 29.748
v 60.460 29.160
v 62.063 28.540
v 63.646 27.874
v 65.228 27.208
v 66.799 26.507
v 68.340 25.752
v 69.882 24.997
v 71.409 24.203
v 72.895 23.346
v 74.381 22.488
v 75.849 21.586
v 77.258 20.608
v 78.667 19.630
v 80.053 18.599
v 81.349 17.479
v 82.645 16.359
v 83.910 15.173
v 85.036 13.886
v 86.163 12.599
v 87.241 11.225
v 88.106 9.757
v 88.971 8.288
v 89.744 6.701
v 90.226 5.075
v 90.709 3.449
v 90.742 1.692
v 91.000 0.000
v 90.722 -1.757
v 90.683 -3.587
v 90.165 -5.271
v 89.647 -6.956
v 88.815 -8.595
v 87.891 -10.107
v 86.967 -11.619
v 85.817 -13.027
v 84.622 -14.343
v 83.427 -15.660
v 82.088 -16.868
v 80.718 -18.008
v 79.349 -19.148
v 77.889 -20.193
v 76.406 -21.184
v 74.922 -22.174
v 73.380 -23.086
v 71.819 -23.950
v 70.258 -24.815
v 68.656 -25.614
v 67.040 -26.372
v 65.424 -27.130
v 63.779 -27.833
v 62.123 -28.498
v 60.466 -29.164
v 58.788 -29.782
v 57.101 -30.367
v 55.414 -30.951
v 53.700 -31.459
v 52.000 -32.005
v 51.671 -30.276
v 51.619 -28.444
v 51.014 -26.817
v 50.408 -25.190
v 49.474 -23.577
v 48.364 -22.241
v 47.255 -20.906
v 45.859 -19.642
v 44.354 -18.804
v 42.849 -17.966
v 41.036 -17.335
v 39.334 -17.212
v 37.633 -17.088
v 35.726 -17.413
v 34.144 -18.063
v 32.563 -18.713
v 31.031 -19.859
v 29.843 -21.110
v 28.656 -22.362
v 27.661 -23.966
v 27.020 -25.573
v 26.380 -27.180
v 26.340 -29.025
v 26.000 -30.751
v 25.693 -29.193
v 25.700 -27.494
v 25.079 -26.075
v 24.458 -24.657
v 23.460 -23.207
v 22.274 -22.240
v 21.087 -21.272
v 19.470 -20.540
v 17.961 -20.271
v 16.451 -20.001
v 14.721 -20.209
v 13.217 -20.621
v 11.713 -21.033
v 10.241 -21.853
v 8.938 -22.744
v 7.634 -23.634
v 6.446 -24.774
v 5.396 -25.963
v 4.346 -27.152
v 3.413 -28.493
v 2.639 -29.879
v 1.864 -31.265
v 1.189 -32.758
v 0.750 -34.279
v 0.310 -35.799
v 0.250 -37.426
v 0.000 -39.000
v -0.311 -37.236
v -0.390 -35.399
v -0.932 -33.707
v -1.474 -32.015
v -2.301 -30.356
v -3.252 -28.848
v -4.202 -27.340
v -5.344 -25.881
v -6.634 -24.658
v -7.924 -23.435
v -9.403 -22.261
v -10.992 -21.509
v -12.581 -20.757
v -14.450 -20.141
v -16.168 -20.145
v -17.887 -20.150
v -19.860 -20.638
v -21.304 -21.536
v -22.747 -22.433
v -24.048 -23.994
v -24.831 -25.530
v -25.613 -27.066
v -25.610 -29.011
v -26.000 -30.751
v -26.340 -29.025
v -26.380 -27.180
v -27.020 -25.573
v -27.661 -23.966
v -28.656 -22.362
v -29.843 -21.110
v -31.031 -19.859
v -32.563 -18.713
v -34.144 -18.063
v -35.726 -17.413
v -37.633 -17.088
v -39.334 -17.212
v -41.036 -17.335
v -42.849 -17.966
v -44.354 -18.804
v -45.859 -19.642
v -47.255 -20.906
v -48.364 -22.241
v -49.474 -23.577
v -50.408 -25.190
v -51.014 -26.817
v -51.619 -28.444
v -51.671 -30.276
v -52.000 -32.005
v -53.700 -31.459
v -55.414 -30.951
v -57.101 -30.367
v -58.788 -29.782
v -60.466 -29.164
v -62.123 -28.498
v -63.779 -27.833
v -65.424 -27.130
v -67.040 -26.372
v -68.656 -25.614
v -70.258 -24.815
v -71.819 -23.950
v -73.380 -23.086
v -74.922 -22.174
v -76.406 -21.184
v -77.889 -20.193
v -79.349 -19.148
v -80.718 -18.008
v -82.088 -16.868
v -83.427 -15.660
v -84.622 -14.343
v -85.817 -13.027
v -86.967 -11.619
v -87.891 -10.107
v -88.815 -8.595
v -89.647 -6.956
v -90.165 -5.271
v -90.683 -3.587
v -90.722 -1.757
v -91.000 0.000
