# chapeu - 55 pontos
v -24.0000 18.0000
v -22.8241 19.4698
v -21.6482 20.9397
v -20.4724 22.4095
v -18.9649 23.4436
v -17.2348 24.1851
v -15.5046 24.9266
v -13.7745 25.6681
v -11.9667 26.1148
v -10.0959 26.3227
v -8.2250 26.5306
v -6.3542 26.7384
v -4.4834 26.9463
v -2.6126 26.8458
v -0.7418 26.6380
v 1.1290 26.4301
v 2.9998 26.2222
v 4.8706 26.0144
v 6.6623 25.4459
v 8.4480 24.8507
v 10.2337 24.2554
v 12.0194 23.6602
v 13.8052 23.0649
v 15.3953 22.0698
v 16.9615 21.0257
v 18.5277 19.9815
v 20.0677 18.9097
v 21.1971 17.4039
v 22.3265 15.8980
v 22.2694 14.7913
v 20.4595 14.2742
v 18.6496 13.7570
v 16.8397 13.2399
v 14.9988 13.1251
v 13.1310 13.3586
v 11.2632 13.5921
v 9.3954 13.8256
v 7.5277 14.0590
v 5.6599 14.2925
v 3.7921 14.5260
v 1.9243 14.7595
v 0.0565 14.9929
v -1.8254 15.0000
v -3.7077 15.0000
v -5.5900 15.0000
v -7.4724 15.0000
v -9.3442 14.8320
v -11.2120 14.5985
v -13.0798 14.3650
v -14.9476 14.1316
v -16.8135 14.1162
v -18.6769 14.3824
v -20.5403 14.6486
v -22.4037 14.9148
v -23.4048 16.2143

# copa_chapeu - 55 pontos
v -17.0000 18.0000
v -16.7413 19.5522
v -16.4826 21.1043
v -16.2239 22.6565
v -15.8679 24.1652
v -14.8849 25.3939
v -13.9019 26.6227
v -12.9189 27.8514
v -11.9056 29.0404
v -10.4593 29.6603
v -9.0130 30.2802
v -7.5666 30.9000
v -6.1203 31.5199
v -4.6453 32.0000
v -3.0717 32.0000
v -1.4981 32.0000
v 0.0754 32.0000
v 1.6490 32.0000
v 3.2226 32.0000
v 4.7455 31.7205
v 6.2188 31.1679
v 7.6922 30.6154
v 9.1656 30.0629
v 10.6390 29.5104
v 12.0848 28.9152
v 13.1975 27.8025
v 14.3102 26.6898
v 15.4229 25.5771
v 16.5356 24.4644
v 17.1507 23.0957
v 17.4094 21.5435
v 17.6681 19.9914
v 17.9268 18.4392
v 16.9296 18.3568
v 15.4368 18.8544
v 13.9440 19.3520
v 12.4512 19.8496
v 10.9130 20.1553
v 9.3553 20.3778
v 7.7975 20.6004
v 6.2398 20.8229
v 4.6788 21.0000
v 3.1052 21.0000
v 1.5317 21.0000
v -0.0419 21.0000
v -1.6155 21.0000
v -3.1872 20.9733
v -4.7449 20.7507
v -6.3027 20.5282
v -7.8604 20.3057
v -9.4182 20.0831
v -10.9479 19.7292
v -12.4609 19.2969
v -13.9740 18.8646
v -15.4870 18.4323

# rosto - 65 pontos
v -18.0000 12.0000
v -17.7852 10.4962
v -17.5704 8.9925
v -17.3555 7.4887
v -17.1407 5.9850
v -16.7656 4.5313
v -16.0863 3.1726
v -15.4070 1.8140
v -14.7276 0.4553
v -14.0483 -0.9034
v -12.8982 -1.8814
v -11.7121 -2.8304
v -10.5259 -3.7793
v -9.3397 -4.7282
v -7.9578 -5.2978
v -6.4972 -5.7151
v -5.0366 -6.1324
v -3.5760 -6.5497
v -2.1154 -6.9670
v -0.6118 -6.8265
v 0.8955 -6.6381
v 2.4028 -6.4497
v 3.9101 -6.2612
v 5.4173 -6.0728
v 6.8091 -5.5377
v 8.1279 -4.7840
v 9.4468 -4.0304
v 10.7657 -3.2767
v 12.0846 -2.5231
v 13.2578 -1.6133
v 14.1004 -0.3494
v 14.9430 0.9145
v 15.7856 2.1784
v 16.6282 3.4423
v 17.1200 4.8402
v 17.3349 6.3440
v 17.5497 7.8477
v 17.7645 9.3515
v 17.9793 10.8552
v 17.1424 12.0720
v 16.1935 13.2581
v 15.2446 14.4443
v 14.2956 15.6304
v 13.0388 16.4119
v 11.6426 17.0103
v 10.2464 17.6087
v 8.8502 18.2071
v 7.4540 18.8054
v 5.9749 19.0000
v 4.4559 19.0000
v 2.9368 19.0000
v 1.4178 19.0000
v -0.1012 19.0000
v -1.6202 19.0000
v -3.1351 18.9662
v -4.6088 18.5978
v -6.0824 18.2294
v -7.5561 17.8610
v -9.0298 17.4926
v -10.5035 17.1241
v -11.8196 16.4146
v -13.0557 15.5317
v -14.2918 14.6487
v -15.5278 13.7658
v -16.7639 12.8829

# orelha_esquerda - 20 pontos
v -19.0000 9.0000
v -20.0869 8.7283
v -21.1738 8.4566
v -22.2606 8.1848
v -23.0869 7.6525
v -23.3586 6.5656
v -23.6303 5.4787
v -23.9020 4.3918
v -23.6026 3.4039
v -22.9811 2.4717
v -22.3597 1.5395
v -21.5779 1.2110
v -20.5759 1.7121
v -19.5738 2.2131
v -18.5717 2.7141
v -18.0791 3.4746
v -18.2633 4.5796
v -18.4475 5.6847
v -18.6316 6.7898
v -18.8158 7.8949

# orelha_direita - 20 pontos
v 18.0000 9.0000
v 19.0869 8.7283
v 20.1738 8.4566
v 21.2606 8.1848
v 22.0869 7.6525
v 22.3586 6.5656
v 22.6303 5.4787
v 22.9020 4.3918
v 22.6026 3.4039
v 21.9811 2.4717
v 21.3597 1.5395
v 20.5779 1.2110
v 19.5759 1.7121
v 18.5738 2.2131
v 17.5717 2.7141
v 17.0791 3.4746
v 17.2633 4.5796
v 17.4475 5.6847
v 17.6316 6.7898
v 17.8158 7.8949

# cabelo - 30 pontos
v -17.0000 8.0000
v -19.5147 6.3235
v -19.4084 3.6337
v -17.8865 1.2576
v -15.6623 0.6754
v -14.3107 3.3786
v -11.6724 4.0000
v -8.6501 4.0000
v -5.6278 4.0000
v -2.6054 4.0000
v 0.4169 4.0000
v 3.4392 4.0000
v 6.4615 4.0000
v 9.4839 4.0000
v 12.5062 4.0000
v 15.5285 4.0000
v 18.1224 2.5851
v 19.0000 3.9676
v 18.3000 6.7000
v 16.1629 8.8371
v 13.2094 8.9154
v 10.1884 8.8239
v 7.1675 8.7323
v 4.1466 8.6408
v 1.1256 8.5493
v -1.8953 8.4577
v -4.9163 8.3662
v -7.9372 8.2746
v -10.9581 8.1831
v -13.9791 8.0915

# olho_esquerdo - 24 pontos
v -5.0000 10.0000
v -5.0768 10.6532
v -5.2220 11.2895
v -5.4583 11.9033
v -5.8604 12.4223
v -6.3803 12.8057
v -7.0000 12.9544
v -7.6197 12.8057
v -8.1396 12.4223
v -8.5417 11.9033
v -8.7780 11.2895
v -8.9232 10.6532
v -9.0000 10.0000
v -8.9232 9.3468
v -8.7780 8.7105
v -8.5417 8.0967
v -8.1396 7.5777
v -7.6197 7.1943
v -7.0000 7.0456
v -6.3803 7.1943
v -5.8604 7.5777
v -5.4583 8.0967
v -5.2220 8.7105
v -5.0768 9.3468

# olho_direito - 24 pontos
v 9.0000 10.0000
v 8.9232 10.6532
v 8.7780 11.2895
v 8.5417 11.9033
v 8.1396 12.4223
v 7.6197 12.8057
v 7.0000 12.9544
v 6.3803 12.8057
v 5.8604 12.4223
v 5.4583 11.9033
v 5.2220 11.2895
v 5.0768 10.6532
v 5.0000 10.0000
v 5.0768 9.3468
v 5.2220 8.7105
v 5.4583 8.0967
v 5.8604 7.5777
v 6.3803 7.1943
v 7.0000 7.0456
v 7.6197 7.1943
v 8.1396 7.5777
v 8.5417 8.0967
v 8.7780 8.7105
v 8.9232 9.3468

# nariz - 40 pontos
v 6.0000 4.0000
v 5.8771 4.8180
v 5.5783 5.5829
v 5.1365 6.2739
v 4.5843 6.8857
v 3.9226 7.3820
v 3.1981 7.7740
v 2.4393 8.0974
v 1.6392 8.3074
v 0.8242 8.4304
v -0.0000 8.5000
v -0.8242 8.4304
v -1.6392 8.3074
v -2.4393 8.0974
v -3.1981 7.7740
v -3.9226 7.3820
v -4.5843 6.8857
v -5.1365 6.2739
v -5.5783 5.5829
v -5.8771 4.8180
v -6.0000 4.0000
v -5.8771 3.1820
v -5.5783 2.4171
v -5.1365 1.7261
v -4.5843 1.1143
v -3.9226 0.6180
v -3.1981 0.2260
v -2.4393 -0.0974
v -1.6392 -0.3074
v -0.8242 -0.4304
v 0.0000 -0.5000
v 0.8242 -0.4304
v 1.6392 -0.3074
v 2.4393 -0.0974
v 3.1981 0.2260
v 3.9226 0.6180
v 4.5843 1.1143
v 5.1365 1.7261
v 5.5783 2.4171
v 5.8771 3.1820

# bigode - 55 pontos
v -11.0000 1.0000
v -10.3305 1.6695
v -9.6609 2.3391
v -8.9914 3.0086
v -8.3219 3.6781
v -7.5230 3.8808
v -6.6044 3.6511
v -5.6858 3.4215
v -4.7672 3.1918
v -3.8605 2.9302
v -3.0136 2.5068
v -2.1667 2.0833
v -1.3198 1.6599
v -0.4729 1.2364
v 0.3740 1.1870
v 1.2209 1.6105
v 2.0678 2.0339
v 2.9147 2.4574
v 3.7616 2.8808
v 4.6600 3.1650
v 5.5786 3.3947
v 6.4972 3.6243
v 7.4158 3.8539
v 8.2437 3.7563
v 8.9133 3.0867
v 9.5828 2.4172
v 10.2523 1.7477
v 10.9219 1.0781
v 10.5361 0.3041
v 10.0109 -0.4837
v 9.4856 -1.2715
v 8.9308 -2.0173
v 8.0122 -2.2470
v 7.0936 -2.4766
v 6.1750 -2.7063
v 5.2564 -2.9359
v 4.3895 -2.6947
v 3.5426 -2.2713
v 2.6957 -1.8478
v 1.8488 -1.4244
v 1.0019 -1.0009
v 0.0553 -1.0000
v -0.8916 -1.0000
v -1.7499 -1.3750
v -2.5968 -1.7984
v -3.4437 -2.2219
v -4.2906 -2.6453
v -5.1492 -2.9627
v -6.0678 -2.7331
v -6.9864 -2.5034
v -7.9049 -2.2738
v -8.8235 -2.0441
v -9.4243 -1.3635
v -9.9496 -0.5757
v -10.4748 0.2122

# boca - 25 pontos
v -6.0000 -4.0000
v -5.0705 -4.6197
v -4.1410 -5.2393
v -3.2115 -5.8590
v -2.1488 -6.1419
v -1.0469 -6.3255
v 0.0554 -6.4931
v 1.1639 -6.3545
v 2.2724 -6.2160
v 3.3809 -6.0774
v 4.4104 -5.7264
v 5.3399 -5.1067
v 6.2694 -4.4871
v 6.7732 -3.9244
v 5.7134 -3.5711
v 4.6536 -3.2179
v 3.5846 -3.1038
v 2.5009 -3.3748
v 1.4171 -3.6457
v 0.3333 -3.9167
v -0.7504 -3.8124
v -1.8342 -3.5414
v -2.9180 -3.2705
v -4.0016 -3.0008
v -5.0008 -3.5004

# pescoco - 18 pontos
v -7.0000 -8.0000
v -4.7668 -8.0000
v -2.5336 -8.0000
v -0.3003 -8.0000
v 1.9329 -8.0000
v 4.1661 -8.0000
v 6.3993 -8.0000
v 7.3202 -9.6009
v 7.7581 -11.7907
v 7.0000 -13.0000
v 4.7668 -13.0000
v 2.5336 -13.0000
v 0.3003 -13.0000
v -1.9329 -13.0000
v -4.1661 -13.0000
v -6.3993 -13.0000
v -7.8759 -12.3797
v -7.4380 -10.1899

# corpo - 80 pontos
v -14.0000 -12.0000
v -15.4211 -12.5329
v -16.8422 -13.0658
v -18.2633 -13.5987
v -19.6844 -14.1316
v -21.1055 -14.6646
v -22.2215 -15.5169
v -22.8194 -16.9119
v -23.4173 -18.3069
v -24.0151 -19.7020
v -24.6130 -21.0970
v -24.7031 -22.4454
v -23.8612 -23.7082
v -23.0193 -24.9710
v -22.1774 -26.2339
v -21.3355 -27.4967
v -20.0942 -28.1132
v -18.5882 -28.3015
v -17.0822 -28.4897
v -15.5762 -28.6780
v -14.0702 -28.8662
v -12.6570 -28.7256
v -11.4719 -27.7775
v -10.2867 -26.8294
v -9.1016 -25.8813
v -7.8962 -25.0260
v -6.4238 -25.3941
v -4.9514 -25.7622
v -3.4789 -26.1303
v -2.0065 -26.4984
v -0.5341 -26.8665
v 0.9383 -26.7654
v 2.4107 -26.3973
v 3.8831 -26.0292
v 5.3556 -25.6611
v 6.8280 -25.2930
v 8.2418 -25.1934
v 9.4269 -26.1415
v 10.6121 -27.0897
v 11.7972 -28.0378
v 12.9824 -28.9859
v 14.4836 -28.8145
v 15.9896 -28.6263
v 17.4956 -28.4380
v 19.0016 -28.2498
v 20.5077 -28.0615
v 21.5667 -27.1500
v 22.4085 -25.8872
v 23.2504 -24.6244
v 24.0923 -23.3615
v 24.9342 -22.0987
v 24.4489 -20.7140
v 23.8510 -19.3190
v 23.2531 -17.9240
v 22.6553 -16.5290
v 22.0574 -15.1340
v 20.7154 -14.5183
v 19.2943 -13.9854
v 17.8732 -13.4524
v 16.4521 -12.9195
v 15.0310 -12.3866
v 13.5890 -11.9315
v 12.0919 -11.6820
v 10.5949 -11.4325
v 9.0978 -11.1830
v 7.6210 -11.1421
v 6.1999 -11.6750
v 4.7788 -12.2080
v 3.3577 -12.7409
v 1.9366 -13.2738
v 0.5155 -13.8067
v -0.9056 -13.6604
v -2.3267 -13.1275
v -3.7478 -12.5946
v -5.1689 -12.0617
v -6.5900 -11.5288
v -8.0117 -11.0019
v -9.5088 -11.2515
v -11.0058 -11.5010
v -12.5029 -11.7505

# alca_esquerda - 25 pontos
v -13.0000 -12.0000
v -11.8000 -12.2400
v -10.6000 -12.4800
v -9.4000 -12.7200
v -8.2000 -12.9600
v -7.8000 -14.0000
v -7.5600 -15.2000
v -7.3200 -16.4000
v -7.0800 -17.6000
v -6.8400 -18.8000
v -6.6000 -20.0000
v -6.3600 -21.2000
v -6.1200 -22.4000
v -6.6000 -22.8800
v -7.8000 -22.6400
v -9.0000 -22.4000
v -10.2000 -22.1600
v -11.0800 -21.6000
v -11.3200 -20.4000
v -11.5600 -19.2000
v -11.8000 -18.0000
v -12.0400 -16.8000
v -12.2800 -15.6000
v -12.5200 -14.4000
v -12.7600 -13.2000

# alca_direita - 25 pontos
v 13.0000 -12.0000
v 11.8000 -12.2400
v 10.6000 -12.4800
v 9.4000 -12.7200
v 8.2000 -12.9600
v 7.8000 -14.0000
v 7.5600 -15.2000
v 7.3200 -16.4000
v 7.0800 -17.6000
v 6.8400 -18.8000
v 6.6000 -20.0000
v 6.3600 -21.2000
v 6.1200 -22.4000
v 6.6000 -22.8800
v 7.8000 -22.6400
v 9.0000 -22.4000
v 10.2000 -22.1600
v 11.0800 -21.6000
v 11.3200 -20.4000
v 11.5600 -19.2000
v 11.8000 -18.0000
v 12.0400 -16.8000
v 12.2800 -15.6000
v 12.5200 -14.4000
v 12.7600 -13.2000

# braco_esquerdo - 45 pontos
v -18.0000 -14.0000
v -18.9998 -14.2222
v -19.9995 -14.4443
v -20.9993 -14.6665
v -21.9991 -14.8887
v -22.9988 -15.1109
v -23.9986 -15.3330
v -24.9984 -15.5552
v -25.9981 -15.7774
v -26.9979 -15.9995
v -27.5669 -16.8504
v -28.1350 -17.7025
v -28.7031 -18.5546
v -29.2712 -19.4068
v -29.8393 -20.2589
v -30.4074 -21.1111
v -30.9755 -21.9632
v -30.5617 -22.8765
v -30.1037 -23.7925
v -29.6457 -24.7086
v -29.1877 -25.6246
v -28.4388 -25.7755
v -27.4879 -25.3951
v -26.5370 -25.0148
v -25.5861 -24.6344
v -24.6352 -24.2541
v -23.7595 -23.7595
v -23.0354 -23.0354
v -22.3112 -22.3112
v -21.5870 -21.5870
v -20.8628 -20.8628
v -20.1386 -20.1386
v -19.1802 -19.8829
v -18.1663 -19.7380
v -17.1525 -19.5932
v -16.1386 -19.4484
v -15.1247 -19.3035
v -14.1109 -19.1587
v -13.0970 -19.0139
v -13.6549 -18.3451
v -14.3791 -17.6209
v -15.1033 -16.8967
v -15.8274 -16.1726
v -16.5516 -15.4484
v -17.2758 -14.7242

# braco_direito - 45 pontos
v 18.0000 -14.0000
v 18.9998 -14.2222
v 19.9995 -14.4443
v 20.9993 -14.6665
v 21.9991 -14.8887
v 22.9988 -15.1109
v 23.9986 -15.3330
v 24.9984 -15.5552
v 25.9981 -15.7774
v 26.9979 -15.9995
v 27.5669 -16.8504
v 28.1350 -17.7025
v 28.7031 -18.5546
v 29.2712 -19.4068
v 29.8393 -20.2589
v 30.4074 -21.1111
v 30.9755 -21.9632
v 30.5617 -22.8765
v 30.1037 -23.7925
v 29.6457 -24.7086
v 29.1877 -25.6246
v 28.4388 -25.7755
v 27.4879 -25.3951
v 26.5370 -25.0148
v 25.5861 -24.6344
v 24.6352 -24.2541
v 23.7595 -23.7595
v 23.0354 -23.0354
v 22.3112 -22.3112
v 21.5870 -21.5870
v 20.8628 -20.8628
v 20.1386 -20.1386
v 19.1802 -19.8829
v 18.1663 -19.7380
v 17.1525 -19.5932
v 16.1386 -19.4484
v 15.1247 -19.3035
v 14.1109 -19.1587
v 13.0970 -19.0139
v 13.6549 -18.3451
v 14.3791 -17.6209
v 15.1033 -16.8967
v 15.8274 -16.1726
v 16.5516 -15.4484
v 17.2758 -14.7242

# luva_esquerda - 24 pontos
v -24.8425 -25.4693
v -25.4587 -24.5462
v -26.2992 -23.8255
v -27.2882 -23.3340
v -28.3606 -23.0793
v -29.4614 -23.0620
v -30.5403 -23.2816
v -31.5436 -23.7371
v -32.4088 -24.4219
v -33.0627 -25.3130
v -33.4312 -26.3565
v -33.4638 -27.4640
v -33.1575 -28.5307
v -32.5413 -29.4538
v -31.7008 -30.1745
v -30.7118 -30.6660
v -29.6394 -30.9207
v -28.5386 -30.9380
v -27.4597 -30.7184
v -26.4564 -30.2629
v -25.5912 -29.5781
v -24.9373 -28.6870
v -24.5688 -27.6435
v -24.5362 -26.5360

# luva_direita - 24 pontos
v 33.1575 -25.4693
v 32.5413 -24.5462
v 31.7008 -23.8255
v 30.7118 -23.3340
v 29.6394 -23.0793
v 28.5386 -23.0620
v 27.4597 -23.2816
v 26.4564 -23.7371
v 25.5912 -24.4219
v 24.9373 -25.3130
v 24.5688 -26.3565
v 24.5362 -27.4640
v 24.8425 -28.5307
v 25.4587 -29.4538
v 26.2992 -30.1745
v 27.2882 -30.6660
v 28.3606 -30.9207
v 29.4614 -30.9380
v 30.5403 -30.7184
v 31.5436 -30.2629
v 32.4088 -29.5781
v 33.0627 -28.6870
v 33.4312 -27.6435
v 33.4638 -26.5360

# perna_esquerda - 35 pontos
v -14.0000 -27.0000
v -13.7143 -28.2854
v -13.4287 -29.5709
v -13.1430 -30.8563
v -12.8574 -32.1417
v -12.5717 -33.4271
v -12.2861 -34.7126
v -12.0004 -35.9980
v -11.5117 -37.2207
v -11.0227 -38.4433
v -10.5336 -39.6659
v -10.0446 -40.8885
v -8.8196 -41.1967
v -7.5207 -41.4132
v -6.2219 -41.6297
v -4.9230 -41.8462
v -3.7714 -41.6952
v -2.9813 -40.6417
v -2.1912 -39.5883
v -1.4012 -38.5349
v -1.1406 -37.3673
v -1.4263 -36.0818
v -1.7119 -34.7964
v -1.9976 -33.5110
v -2.2832 -32.2256
v -2.5689 -30.9401
v -2.8545 -29.6547
v -3.6357 -28.8844
v -4.9312 -28.6489
v -6.2267 -28.4133
v -7.5223 -28.1778
v -8.8178 -27.9422
v -10.1134 -27.7067
v -11.4089 -27.4711
v -12.7045 -27.2356

# perna_direita - 35 pontos
v 14.0000 -27.0000
v 13.7143 -28.2854
v 13.4287 -29.5709
v 13.1430 -30.8563
v 12.8574 -32.1417
v 12.5717 -33.4271
v 12.2861 -34.7126
v 12.0004 -35.9980
v 11.5117 -37.2207
v 11.0227 -38.4433
v 10.5336 -39.6659
v 10.0446 -40.8885
v 8.8196 -41.1967
v 7.5207 -41.4132
v 6.2219 -41.6297
v 4.9230 -41.8462
v 3.7714 -41.6952
v 2.9813 -40.6417
v 2.1912 -39.5883
v 1.4012 -38.5349
v 1.1406 -37.3673
v 1.4263 -36.0818
v 1.7119 -34.7964
v 1.9976 -33.5110
v 2.2832 -32.2256
v 2.5689 -30.9401
v 2.8545 -29.6547
v 3.6357 -28.8844
v 4.9312 -28.6489
v 6.2267 -28.4133
v 7.5223 -28.1778
v 8.8178 -27.9422
v 10.1134 -27.7067
v 11.4089 -27.4711
v 12.7045 -27.2356

# sapato_esquerdo - 30 pontos
v -12.0000 -40.0000
v -13.6073 -40.4592
v -15.2145 -40.9184
v -16.8218 -41.3777
v -18.4291 -41.8369
v -19.9640 -42.4820
v -21.4591 -43.2296
v -22.9542 -43.9771
v -24.4493 -44.7247
v -25.0000 -46.0559
v -25.0000 -47.7275
v -23.6150 -48.1979
v -21.9602 -48.4343
v -20.3054 -48.6707
v -18.6507 -48.9070
v -17.0054 -48.8011
v -15.3663 -48.4733
v -13.7272 -48.1454
v -12.0880 -47.8176
v -10.4489 -47.4898
v -8.8098 -47.1620
v -7.3396 -46.4717
v -6.0343 -45.4274
v -4.7290 -44.3832
v -3.4237 -43.3390
v -4.0710 -42.6430
v -5.6568 -42.1144
v -7.2426 -41.5858
v -8.8284 -41.0572
v -10.4142 -40.5286

# sapato_direito - 30 pontos
v 12.0000 -40.0000
v 13.6073 -40.4592
v 15.2145 -40.9184
v 16.8218 -41.3777
v 18.4291 -41.8369
v 19.9640 -42.4820
v 21.4591 -43.2296
v 22.9542 -43.9771
v 24.4493 -44.7247
v 25.0000 -46.0559
v 25.0000 -47.7275
v 23.6150 -48.1979
v 21.9602 -48.4343
v 20.3054 -48.6707
v 18.6507 -48.9070
v 17.0054 -48.8011
v 15.3663 -48.4733
v 13.7272 -48.1454
v 12.0880 -47.8176
v 10.4489 -47.4898
v 8.8098 -47.1620
v 7.3396 -46.4717
v 6.0343 -45.4274
v 4.7290 -44.3832
v 3.4237 -43.3390
v 4.0710 -42.6430
v 5.6568 -42.1144
v 7.2426 -41.5858
v 8.8284 -41.0572
v 10.4142 -40.528