# Rosa de exemplo: cabeca com 100 trechos, caule e folha
# 312 pontos de controle em 3 contornos Bezier independentes
o petalas
v 33.000000 35.000000
v 33.000000 35.691150
v 32.828745 36.382137
v 32.495260 37.044428
v 32.161775 37.706720
v 31.666210 38.340015
v 31.034492 38.920568
v 30.402773 39.501122
v 29.635184 40.028702
v 28.771260 40.488411
v 27.907336 40.948121
v 26.947454 41.339834
v 25.939774 41.660202
v 24.932094 41.980570
v 23.877035 42.229596
v 22.825356 42.416408
v 21.773678 42.603219
v 20.725787 42.727948
v 19.728785 42.811179
v 18.731783 42.894409
v 17.786012 42.936385
v 16.929253 42.966302
v 16.072494 42.996219
v 15.304979 43.014399
v 14.650837 43.054366
v 13.996696 43.094333
v 13.456020 43.156441
v 13.036838 43.273429
v 12.617656 43.390417
v 12.319913 43.562619
v 12.135255 43.816779
v 11.950597 44.070939
v 11.878831 44.407323
v 11.897103 44.842140
v 11.915375 45.276956
v 12.023385 45.810362
v 12.187515 46.444838
v 12.351645 47.079315
v 12.571530 47.814883
v 12.807830 48.638954
v 13.044131 49.463025
v 13.296468 50.375478
v 13.525402 51.349403
v 13.754336 52.323327
v 13.959528 53.358474
v 14.106846 54.416408
v 14.254164 55.474342
v 14.343357 56.554715
v 14.350059 57.612075
v 14.356761 58.669435
v 14.280840 59.703383
v 14.110598 60.667082
v 13.940355 61.630780
v 13.675795 62.523833
v 13.318867 63.304033
v 12.961940 64.084234
v 12.512779 64.751243
v 11.985955 65.273066
v 11.459130 65.794888
v 10.854884 66.171288
v 10.197561 66.384865
v 9.540238 66.598442
v 8.830150 66.649096
v 8.097221 66.536592
v 7.364291 66.424088
v 6.608854 66.148477
v 5.861504 65.727078
v 5.114153 65.305679
v 4.375195 64.738689
v 3.671019 64.059106
v 2.966842 63.379524
v 2.297681 62.587668
v 1.681603 61.728306
v 1.065524 60.868945
v 0.502655 59.942478
v -0.000000 59.000000
v -0.502655 58.057522
v -0.945095 57.099462
v -1.332342 56.176977
v -1.719590 55.254491
v -2.051771 54.367981
v -2.344976 53.562399
v -2.638182 52.756818
v -2.892648 52.032486
v -3.132800 51.422710
v -3.372951 50.812935
v -3.599098 50.317914
v -3.839894 49.955400
v -4.080690 49.592886
v -4.336472 49.362928
v -4.635255 49.265848
v -4.934038 49.168767
v -5.276135 49.204462
v -5.684024 49.356206
v -6.091913 49.507950
v -6.565835 49.775504
v -7.118539 50.127665
v -7.671243 50.479826
v -8.302862 50.916252
v -9.013579 51.395639
v -9.724296 51.875026
v -10.514114 52.396977
v -11.369627 52.915665
v -12.225140 53.434353
v -13.146215 53.949380
v -14.106846 54.416408
v -15.067477 54.883435
v -16.067411 55.302117
v -17.070949 55.635233
v -18.074487 55.968349
v -19.081291 56.215651
v -20.050431 56.351540
v -21.019570 56.487429
v -21.950667 56.511786
v -22.802979 56.413423
v -23.655291 56.315060
v -24.428452 56.094000
v -25.087533 55.754212
v -25.746613 55.414424
v -26.291313 54.956066
v -26.697561 54.396913
v -27.103809 53.837761
v -27.371412 53.178080
v -27.490902 52.446257
v -27.610392 51.714434
v -27.581714 50.910803
v -27.411883 50.069810
v -27.242053 49.228818
v -26.931164 48.350818
v -26.502445 47.471104
v -26.073726 46.591390
v -25.527409 45.710283
v -24.900486 44.858800
v -24.273564 44.007317
v -23.566377 43.185703
v -22.825356 42.416408
v -22.084336 41.647113
v -21.309888 40.930270
v -20.552218 40.276913
v -19.794548 39.623555
v -19.054076 39.033685
v -18.378528 38.505892
v -17.702981 37.978098
v -17.092734 37.512256
v -16.587014 37.095427
v -16.081294 36.678598
v -15.680385 36.310550
v -15.410023 35.969516
v -15.139662 35.628482
v -15.000000 35.314159
v -15.000000 35.000000
v -15.000000 34.685841
v -15.139662 34.371518
v -15.410023 34.030484
v -15.680385 33.689450
v -16.081294 33.321402
v -16.587014 32.904573
v -17.092734 32.487744
v -17.702981 32.021902
v -18.378528 31.494108
v -19.054076 30.966315
v -19.794548 30.376445
v -20.552218 29.723087
v -21.309888 29.069730
v -22.084336 28.352887
v -22.825356 27.583592
v -23.566377 26.814297
v -24.273564 25.992683
v -24.900486 25.141200
v -25.527409 24.289717
v -26.073726 23.408610
v -26.502445 22.528896
v -26.931164 21.649182
v -27.242053 20.771182
v -27.411883 19.930190
v -27.581714 19.089197
v -27.610392 18.285566
v -27.490902 17.553743
v -27.371412 16.821920
v -27.103809 16.162239
v -26.697561 15.603087
v -26.291313 15.043934
v -25.746613 14.585576
v -25.087533 14.245788
v -24.428452 13.906000
v -23.655291 13.684940
v -22.802979 13.586577
v -21.950667 13.488214
v -21.019570 13.512571
v -20.050431 13.648460
v -19.081291 13.784349
v -18.074487 14.031651
v -17.070949 14.364767
v -16.067411 14.697883
v -15.067477 15.116565
v -14.106846 15.583592
v -13.146215 16.050620
v -12.225140 16.565647
v -11.369627 17.084335
v -10.514114 17.603023
v -9.724296 18.124974
v -9.013579 18.604361
v -8.302862 19.083748
v -7.671243 19.520174
v -7.118539 19.872335
v -6.565835 20.224496
v -6.091913 20.492050
v -5.684024 20.643794
v -5.276135 20.795538
v -4.934038 20.831233
v -4.635255 20.734152
v -4.336472 20.637072
v -4.080690 20.407114
v -3.839894 20.044600
v -3.599098 19.682086
v -3.372951 19.187065
v -3.132800 18.577290
v -2.892648 17.967514
v -2.638182 17.243182
v -2.344976 16.437601
v -2.051771 15.632019
v -1.719590 14.745509
v -1.332342 13.823023
v -0.945095 12.900538
v -0.502655 11.942478
v -0.000000 11.000000
v 0.502655 10.057522
v 1.065524 9.131055
v 1.681603 8.271694
v 2.297681 7.412332
v 2.966842 6.620476
v 3.671019 5.940894
v 4.375195 5.261311
v 5.114153 4.694321
v 5.861504 4.272922
v 6.608854 3.851523
v 7.364291 3.575912
v 8.097221 3.463408
v 8.830150 3.350904
v 9.540238 3.401558
v 10.197561 3.615135
v 10.854884 3.828712
v 11.459130 4.205112
v 11.985955 4.726934
v 12.512779 5.248757
v 12.961940 5.915766
v 13.318867 6.695967
v 13.675795 7.476167
v 13.940355 8.369220
v 14.110598 9.332918
v 14.280840 10.296617
v 14.356761 11.330565
v 14.350059 12.387925
v 14.343357 13.445285
v 14.254164 14.525658
v 14.106846 15.583592
v 13.959528 16.641526
v 13.754336 17.676673
v 13.525402 18.650597
v 13.296468 19.624522
v 13.044131 20.536975
v 12.807830 21.361046
v 12.571530 22.185117
v 12.351645 22.920685
v 12.187515 23.555162
v 12.023385 24.189638
v 11.915375 24.723044
v 11.897103 25.157860
v 11.878831 25.592677
v 11.950597 25.929061
v 12.135255 26.183221
v 12.319913 26.437381
v 12.617656 26.609583
v 13.036838 26.726571
v 13.456020 26.843559
v 13.996696 26.905667
v 14.650837 26.945634
v 15.304979 26.985601
v 16.072494 27.003781
v 16.929253 27.033698
v 17.786012 27.063615
v 18.731783 27.105591
v 19.728785 27.188821
v 20.725787 27.272052
v 21.773678 27.396781
v 22.825356 27.583592
v 23.877035 27.770404
v 24.932094 28.019430
v 25.939774 28.339798
v 26.947454 28.660166
v 27.907336 29.051879
v 28.771260 29.511589
v 29.635184 29.971298
v 30.402773 30.498878
v 31.034492 31.079432
v 31.666210 31.659985
v 32.161775 32.293280
v 32.495260 32.955572
v 32.828745 33.617863
v 33.000000 34.308850
v 33.000000 35.000000
o caule
v 0.000000 12.000000
v 2.000000 -8.000000
v -2.000000 -38.000000
v 0.000000 -60.000000
o folha
v 0.000000 -30.000000
v -7.000000 -18.000000
v -23.000000 -17.000000
v -29.000000 -23.000000
v -21.000000 -34.000000
v -8.000000 -40.000000
v 0.000000 -30.000000
